<svg fill="none" xmlns="http://www.w3.org/2000/svg" viewBox="0 0 32 32"><path fill-rule="evenodd" clip-rule="evenodd" d="M7.9 19.545v-.022l8.1-3.957 8.1 3.957v.022l-7.393 3.611a1.612 1.612 0 01-1.415 0L7.9 19.545zm-3.028-3.926a3.224 3.224 0 00-1.809 2.897v2.036c0 1.232.702 2.356 1.81 2.897l9.712 4.744a3.224 3.224 0 002.83 0l9.713-4.744a3.224 3.224 0 001.809-2.897v-2.036a3.224 3.224 0 00-1.81-2.897l-9.712-4.744a3.225 3.225 0 00-2.83 0l-9.713 4.744z" fill="#BAB3E7"/><path d="M0 13.174c0-1.215.683-2.327 1.768-2.876l12.775-6.47a3.224 3.224 0 012.914 0l12.775 6.47A3.224 3.224 0 0132 13.174v.395a3.224 3.224 0 01-3.224 3.224H22.77l-6.73-3.619-8.222 3.62H3.224A3.224 3.224 0 010 13.568v-.395z" fill="#635ED4"/><path d="M20.03 21.534L16 15.776l-4.03 5.758v3.844h8.06v-3.844z" fill="#BAB3E7"/><path d="M11.971 21.534h-.001v5.382l2.615 1.277a3.224 3.224 0 002.83 0l2.615-1.277v-5.382h-.001l-3.322 1.622a1.612 1.612 0 01-1.415 0l-3.32-1.622z" fill="#635ED4"/><path d="M3.3 21.765a3.22 3.22 0 01-.237-1.213v-2.036c0-1.232.702-2.356 1.81-2.897l9.712-4.744a3.225 3.225 0 012.83 0l9.713 4.744a3.224 3.224 0 011.809 2.897v2.036c0 .423-.083.834-.237 1.213L16.85 15.98a1.935 1.935 0 00-1.697 0L3.3 21.765z" fill="#A399E2"/><path d="M17.903 18.494L16 19.427l-1.9-.937 1.9-2.714 1.903 2.718z" fill="#635ED4"/></svg>