<svg fill="none" xmlns="http://www.w3.org/2000/svg" viewBox="0 0 32 32"><ellipse cx="16" cy="22.023" rx="11" ry="5.977" fill="#CEBEF7"/><path fill-rule="evenodd" clip-rule="evenodd" d="M.356 12.346l15.336-8.268a.65.65 0 01.517-.044l.099.044 15.336 8.268c.219.12.356.353.356.61 0 .22-.1.423-.267.55l-.089.058L16 22l-9-4.853v5.024a3.002 3.002 0 011.995 2.653L9 25a3 3 0 11-4-2.83v-6.102L.356 13.564a.686.686 0 01-.348-.5L0 12.955c0-.22.1-.422.267-.55l.089-.059 15.336-8.268L.356 12.346z" fill="#855CEA"/></svg>